<?xml version="1.0" encoding="UTF-8" standalone="no"?>
<svg width="30.0in" height="25.5in" viewBox="0 0 2880.0 2448.0" xmlns="http://www.w3.org/2000/svg">
  <defs>
    <pattern id="grid" width="96" height="96" patternUnits="userSpaceOnUse">
      <path d="M 96 0 L 0 0 0 96" fill="none" stroke="gray" stroke-width="1"/>
    </pattern>
  </defs>
  <rect width="100%" height="100%" fill="url(#grid)" opacity="0.2" />
  
  <polygon points="0,2448.0 1104.0,2448.0 1104.0,1968.0 816.0,1968.0 816.0,480.0 1440.0,1440.0 2064.0,480.0 2064.0,1968.0 1776.0,1968.0 1776.0,2448.0 2880.0,2448.0 2880.0,1968.0 2640.0,1968.0 2640.0,480.0 2880.0,480.0 2880.0,0.0 1776.0,0.0 1440.0,2448.0 1104.0,0.0 0,0.0 0,480.0 240.0,480.0 240.0,1968.0 0,1968.0 0,2448.0" fill="#e0e0e0" stroke="black" stroke-width="2" />
</svg>
